<svg width="400" height="300" viewBox="0 0 400 300" fill="none" xmlns="http://www.w3.org/2000/svg">
  <!-- Background -->
  <rect width="400" height="300" fill="#ffffff" stroke="#e5e7eb" stroke-width="2" rx="12"/>
  
  <!-- Main analytics panel -->
  <rect x="30" y="30" width="340" height="240" fill="#f8fafc" stroke="#cbd5e1" rx="8"/>
  
  <!-- Header -->
  <rect x="30" y="30" width="340" height="50" fill="#1f2937" rx="8"/>
  <text x="50" y="55" fill="white" font-family="Arial, sans-serif" font-size="16" font-weight="bold">AI Portfolio Analytics</text>
  
  <!-- Robot icon -->
  <circle cx="320" cy="55" r="12" fill="#3b82f6"/>
  <rect x="315" y="50" width="10" height="6" fill="white" rx="1"/>
  <circle cx="318" cy="57" r="1" fill="white"/>
  <circle cx="322" cy="57" r="1" fill="white"/>
  
  <!-- Performance metrics -->
  <rect x="50" y="100" width="100" height="60" fill="#ffffff" stroke="#e5e7eb" rx="6"/>
  <text x="60" y="115" fill="#6b7280" font-family="Arial, sans-serif" font-size="10">Return</text>
  <text x="60" y="135" fill="#059669" font-family="Arial, sans-serif" font-size="20" font-weight="bold">+18.5%</text>
  <text x="60" y="150" fill="#059669" font-family="Arial, sans-serif" font-size="9">vs 12.3% benchmark</text>
  
  <rect x="170" y="100" width="100" height="60" fill="#ffffff" stroke="#e5e7eb" rx="6"/>
  <text x="180" y="115" fill="#6b7280" font-family="Arial, sans-serif" font-size="10">Risk Score</text>
  <text x="180" y="135" fill="#f59e0b" font-family="Arial, sans-serif" font-size="20" font-weight="bold">6.2/10</text>
  <text x="180" y="150" fill="#6b7280" font-family="Arial, sans-serif" font-size="9">Moderate Risk</text>
  
  <rect x="290" y="100" width="70" height="60" fill="#ffffff" stroke="#e5e7eb" rx="6"/>
  <text x="300" y="115" fill="#6b7280" font-family="Arial, sans-serif" font-size="10">Allocation</text>
  <circle cx="325" cy="135" r="15" fill="#e5e7eb"/>
  <circle cx="325" cy="135" r="15" fill="#3b82f6" stroke-dasharray="60 40" stroke-width="8" stroke="#3b82f6" transform="rotate(-90 325 135)"/>
  <text x="300" y="155" fill="#6b7280" font-family="Arial, sans-serif" font-size="9">60% Equity</text>
  
  <!-- AI Recommendations -->
  <rect x="50" y="180" width="310" height="80" fill="#eff6ff" stroke="#dbeafe" rx="6"/>
  <text x="60" y="200" fill="#1e40af" font-family="Arial, sans-serif" font-size="12" font-weight="bold">🤖 AI Recommendations</text>
  
  <rect x="60" y="210" width="290" height="20" fill="#ffffff" stroke="#dbeafe" rx="4"/>
  <circle cx="75" cy="220" r="4" fill="#10b981"/>
  <text x="85" y="224" fill="#374151" font-family="Arial, sans-serif" font-size="10">Consider increasing IT sector allocation by 5%</text>
  <text x="320" y="224" fill="#10b981" font-family="Arial, sans-serif" font-size="9">BUY</text>
  
  <rect x="60" y="235" width="290" height="20" fill="#ffffff" stroke="#dbeafe" rx="4"/>
  <circle cx="75" cy="245" r="4" fill="#f59e0b"/>
  <text x="85" y="249" fill="#374151" font-family="Arial, sans-serif" font-size="10">Reduce exposure to pharma - overweight position</text>
  <text x="310" y="249" fill="#f59e0b" font-family="Arial, sans-serif" font-size="9">REDUCE</text>
  
  <!-- Background decorative elements -->
  <circle cx="20" cy="20" r="6" fill="#f0f9ff" stroke="#3b82f6"/>
  <circle cx="380" cy="280" r="8" fill="#f0fdf4" stroke="#10b981"/>
  <rect x="15" y="280" width="12" height="12" fill="#fef3c7" stroke="#f59e0b" rx="2"/>
</svg>