<svg width="500" height="400" viewBox="0 0 500 400" xmlns="http://www.w3.org/2000/svg">
  <!-- Background -->
  <rect width="500" height="400" fill="#f8f9fa"/>
  
  <!-- Laptop -->
  <rect x="150" y="200" width="200" height="120" fill="#343a40" rx="10"/>
  <rect x="160" y="210" width="180" height="100" fill="#000000" rx="5"/>
  <rect x="170" y="220" width="160" height="80" fill="#007bff" rx="3"/>
  
  <!-- Code on screen -->
  <rect x="180" y="230" width="80" height="4" fill="#28a745"/>
  <rect x="180" y="240" width="120" height="4" fill="#ffffff"/>
  <rect x="180" y="250" width="60" height="4" fill="#ffc107"/>
  <rect x="180" y="260" width="100" height="4" fill="#ffffff"/>
  <rect x="180" y="270" width="40" height="4" fill="#dc3545"/>
  <rect x="180" y="280" width="140" height="4" fill="#ffffff"/>
  
  <!-- Laptop base -->
  <rect x="140" y="320" width="220" height="15" fill="#6c757d" rx="7"/>
  
  <!-- People working -->
  <g transform="translate(50, 150)">
    <circle cx="25" cy="25" r="15" fill="#007bff"/>
    <rect x="10" y="45" width="30" height="40" fill="#007bff" rx="15"/>
    <!-- Thought bubble with AI -->
    <circle cx="60" cy="15" r="20" fill="#ffffff" stroke="#007bff" stroke-width="2"/>
    <text x="60" y="20" font-family="Arial, sans-serif" font-size="12" font-weight="bold" fill="#007bff" text-anchor="middle">AI</text>
  </g>
  
  <g transform="translate(400, 180)">
    <circle cx="25" cy="25" r="15" fill="#28a745"/>
    <rect x="10" y="45" width="30" height="40" fill="#28a745" rx="15"/>
    <!-- Thought bubble with code -->
    <circle cx="60" cy="15" r="20" fill="#ffffff" stroke="#28a745" stroke-width="2"/>
    <text x="60" y="20" font-family="Arial, sans-serif" font-size="10" font-weight="bold" fill="#28a745" text-anchor="middle">&lt;/&gt;</text>
  </g>
  
  <!-- Innovation symbols -->
  <g transform="translate(100, 50)">
    <circle cx="0" cy="0" r="3" fill="#ffc107"/>
    <path d="M -8,-8 L 8,8 M 8,-8 L -8,8" stroke="#ffc107" stroke-width="2"/>
    <circle cx="30" cy="10" r="2" fill="#ffc107"/>
    <circle cx="50" cy="-5" r="2" fill="#ffc107"/>
  </g>
  
  <!-- Rocket representing growth -->
  <g transform="translate(350, 80)">
    <path d="M 20,0 L 25,15 L 20,40 L 15,15 Z" fill="#dc3545"/>
    <rect x="17" y="10" width="6" height="8" fill="#ffffff"/>
    <path d="M 10,20 L 20,15 L 20,25 Z" fill="#ffc107"/>
    <path d="M 30,20 L 20,15 L 20,25 Z" fill="#ffc107"/>
    <!-- Exhaust -->
    <path d="M 15,40 L 20,50 L 25,40" fill="#ff6b6b" opacity="0.7"/>
  </g>
  
  <!-- Team collaboration -->
  <g transform="translate(80, 300)">
    <circle cx="20" cy="20" r="8" fill="#007bff"/>
    <circle cx="40" cy="20" r="8" fill="#28a745"/>
    <circle cx="60" cy="20" r="8" fill="#ffc107"/>
    <rect x="12" y="30" width="16" height="20" fill="#007bff" rx="8"/>
    <rect x="32" y="30" width="16" height="20" fill="#28a745" rx="8"/>
    <rect x="52" y="30" width="16" height="20" fill="#ffc107" rx="8"/>
    
    <!-- Connection lines -->
    <line x1="28" y1="20" x2="32" y2="20" stroke="#6c757d" stroke-width="2"/>
    <line x1="48" y1="20" x2="52" y2="20" stroke="#6c757d" stroke-width="2"/>
  </g>
  
  <!-- Building blocks -->
  <g transform="translate(300, 300)">
    <rect x="0" y="20" width="20" height="20" fill="#007bff"/>
    <rect x="25" y="10" width="20" height="20" fill="#28a745"/>
    <rect x="50" y="0" width="20" height="20" fill="#ffc107"/>
    <rect x="75" y="10" width="20" height="20" fill="#dc3545"/>
  </g>
</svg>