<svg width="600" height="400" viewBox="0 0 600 400" fill="none" xmlns="http://www.w3.org/2000/svg">
  <!-- Background -->
  <rect width="600" height="400" fill="white" stroke="#e2e8f0" stroke-width="2" rx="12"/>
  
  <!-- Header -->
  <rect x="0" y="0" width="600" height="60" fill="#1e40af" rx="12"/>
  <text x="24" y="35" fill="white" font-family="Arial, sans-serif" font-size="20" font-weight="bold">tCapital Dashboard</text>
  
  <!-- Navigation tabs -->
  <rect x="24" y="80" width="80" height="32" fill="#3b82f6" rx="6"/>
  <text x="40" y="100" fill="white" font-family="Arial, sans-serif" font-size="12">Portfolio</text>
  <rect x="120" y="80" width="80" height="32" fill="#e2e8f0" rx="6"/>
  <text x="140" y="100" fill="#64748b" font-family="Arial, sans-serif" font-size="12">Trading</text>
  <rect x="216" y="80" width="80" height="32" fill="#e2e8f0" rx="6"/>
  <text x="242" y="100" fill="#64748b" font-family="Arial, sans-serif" font-size="12">Analysis</text>
  
  <!-- Main chart area -->
  <rect x="24" y="130" width="350" height="200" fill="#f8fafc" stroke="#e2e8f0" rx="8"/>
  
  <!-- Chart line -->
  <polyline points="40,250 80,200 120,220 160,180 200,190 240,160 280,170 320,140 360,150" 
            fill="none" stroke="#10b981" stroke-width="3"/>
  
  <!-- Chart points -->
  <circle cx="40" cy="250" r="4" fill="#10b981"/>
  <circle cx="80" cy="200" r="4" fill="#10b981"/>
  <circle cx="120" cy="220" r="4" fill="#10b981"/>
  <circle cx="160" cy="180" r="4" fill="#10b981"/>
  <circle cx="200" cy="190" r="4" fill="#10b981"/>
  <circle cx="240" cy="160" r="4" fill="#10b981"/>
  <circle cx="280" cy="170" r="4" fill="#10b981"/>
  <circle cx="320" cy="140" r="4" fill="#10b981"/>
  <circle cx="360" cy="150" r="4" fill="#10b981"/>
  
  <!-- Chart title -->
  <text x="40" y="155" fill="#1f2937" font-family="Arial, sans-serif" font-size="14" font-weight="bold">Portfolio Performance</text>
  <text x="40" y="175" fill="#6b7280" font-family="Arial, sans-serif" font-size="12">+12.5% (₹2,45,600)</text>
  
  <!-- Side panel -->
  <rect x="390" y="130" width="180" height="200" fill="#f8fafc" stroke="#e2e8f0" rx="8"/>
  
  <!-- Stocks list -->
  <text x="405" y="155" fill="#1f2937" font-family="Arial, sans-serif" font-size="14" font-weight="bold">Top Holdings</text>
  
  <!-- Stock 1 -->
  <circle cx="415" cy="180" r="8" fill="#3b82f6"/>
  <text x="430" y="185" fill="#1f2937" font-family="Arial, sans-serif" font-size="12">RELIANCE</text>
  <text x="520" y="185" fill="#10b981" font-family="Arial, sans-serif" font-size="12">+2.3%</text>
  
  <!-- Stock 2 -->
  <circle cx="415" cy="205" r="8" fill="#ef4444"/>
  <text x="430" y="210" fill="#1f2937" font-family="Arial, sans-serif" font-size="12">TCS</text>
  <text x="520" y="210" fill="#10b981" font-family="Arial, sans-serif" font-size="12">+1.8%</text>
  
  <!-- Stock 3 -->
  <circle cx="415" cy="230" r="8" fill="#f59e0b"/>
  <text x="430" y="235" fill="#1f2937" font-family="Arial, sans-serif" font-size="12">INFY</text>
  <text x="520" y="235" fill="#ef4444" font-family="Arial, sans-serif" font-size="12">-0.5%</text>
  
  <!-- Stock 4 -->
  <circle cx="415" cy="255" r="8" fill="#10b981"/>
  <text x="430" y="260" fill="#1f2937" font-family="Arial, sans-serif" font-size="12">HDFC</text>
  <text x="520" y="260" fill="#10b981" font-family="Arial, sans-serif" font-size="12">+3.1%</text>
  
  <!-- AI indicator -->
  <rect x="405" y="280" width="150" height="35" fill="#3b82f6" fill-opacity="0.1" stroke="#3b82f6" rx="6"/>
  <text x="415" y="300" fill="#3b82f6" font-family="Arial, sans-serif" font-size="11" font-weight="bold">🤖 AI Recommendation</text>
  <text x="415" y="312" fill="#3b82f6" font-family="Arial, sans-serif" font-size="10">BUY: WIPRO at ₹425</text>
  
  <!-- Bottom stats -->
  <rect x="24" y="350" width="100" height="30" fill="#ecfdf5" rx="6"/>
  <text x="30" y="365" fill="#059669" font-family="Arial, sans-serif" font-size="10">Total Value</text>
  <text x="30" y="375" fill="#059669" font-family="Arial, sans-serif" font-size="12" font-weight="bold">₹5,67,890</text>
  
  <rect x="140" y="350" width="100" height="30" fill="#fef3c7" rx="6"/>
  <text x="146" y="365" fill="#d97706" font-family="Arial, sans-serif" font-size="10">Day P&L</text>
  <text x="146" y="375" fill="#d97706" font-family="Arial, sans-serif" font-size="12" font-weight="bold">+₹12,450</text>
  
  <rect x="256" y="350" width="100" height="30" fill="#dbeafe" rx="6"/>
  <text x="262" y="365" fill="#2563eb" font-family="Arial, sans-serif" font-size="10">AI Score</text>
  <text x="262" y="375" fill="#2563eb" font-family="Arial, sans-serif" font-size="12" font-weight="bold">82/100</text>
</svg>