<svg width="500" height="400" viewBox="0 0 500 400" xmlns="http://www.w3.org/2000/svg">
  <!-- Background -->
  <rect width="500" height="400" fill="#f8f9fa" stroke="#dee2e6" stroke-width="2" rx="8"/>
  
  <!-- Header -->
  <rect x="0" y="0" width="500" height="50" fill="#ffffff" stroke="#dee2e6" stroke-width="1" rx="8 8 0 0"/>
  <text x="20" y="30" font-family="Arial, sans-serif" font-size="16" font-weight="bold" fill="#212529">Market Analytics</text>
  
  <!-- Main Chart Area -->
  <rect x="20" y="70" width="460" height="250" fill="#ffffff" stroke="#dee2e6" stroke-width="1" rx="4"/>
  
  <!-- Chart Grid -->
  <g stroke="#e9ecef" stroke-width="1">
    <line x1="50" y1="90" x2="50" y2="300"/>
    <line x1="50" y1="300" x2="460" y2="300"/>
    <line x1="50" y1="270" x2="460" y2="270"/>
    <line x1="50" y1="240" x2="460" y2="240"/>
    <line x1="50" y1="210" x2="460" y2="210"/>
    <line x1="50" y1="180" x2="460" y2="180"/>
    <line x1="50" y1="150" x2="460" y2="150"/>
    <line x1="50" y1="120" x2="460" y2="120"/>
  </g>
  
  <!-- Stock Price Line Chart -->
  <polyline points="70,250 110,230 150,210 190,190 230,170 270,150 310,130 350,110 390,100 430,90" 
            fill="none" stroke="#28a745" stroke-width="3"/>
  
  <!-- Volume Bars -->
  <rect x="100" y="280" width="8" height="20" fill="#007bff" opacity="0.6"/>
  <rect x="140" y="275" width="8" height="25" fill="#007bff" opacity="0.6"/>
  <rect x="180" y="270" width="8" height="30" fill="#007bff" opacity="0.6"/>
  <rect x="220" y="265" width="8" height="35" fill="#007bff" opacity="0.6"/>
  <rect x="260" y="285" width="8" height="15" fill="#007bff" opacity="0.6"/>
  <rect x="300" y="260" width="8" height="40" fill="#007bff" opacity="0.6"/>
  <rect x="340" y="270" width="8" height="30" fill="#007bff" opacity="0.6"/>
  <rect x="380" y="255" width="8" height="45" fill="#007bff" opacity="0.6"/>
  <rect x="420" y="275" width="8" height="25" fill="#007bff" opacity="0.6"/>
  
  <!-- Y-axis Labels -->
  <text x="40" y="125" font-family="Arial, sans-serif" font-size="10" fill="#6c757d" text-anchor="end">$150</text>
  <text x="40" y="155" font-family="Arial, sans-serif" font-size="10" fill="#6c757d" text-anchor="end">$140</text>
  <text x="40" y="185" font-family="Arial, sans-serif" font-size="10" fill="#6c757d" text-anchor="end">$130</text>
  <text x="40" y="215" font-family="Arial, sans-serif" font-size="10" fill="#6c757d" text-anchor="end">$120</text>
  <text x="40" y="245" font-family="Arial, sans-serif" font-size="10" fill="#6c757d" text-anchor="end">$110</text>
  <text x="40" y="275" font-family="Arial, sans-serif" font-size="10" fill="#6c757d" text-anchor="end">$100</text>
  
  <!-- X-axis Labels -->
  <text x="110" y="320" font-family="Arial, sans-serif" font-size="10" fill="#6c757d" text-anchor="middle">Jan</text>
  <text x="190" y="320" font-family="Arial, sans-serif" font-size="10" fill="#6c757d" text-anchor="middle">Mar</text>
  <text x="270" y="320" font-family="Arial, sans-serif" font-size="10" fill="#6c757d" text-anchor="middle">May</text>
  <text x="350" y="320" font-family="Arial, sans-serif" font-size="10" fill="#6c757d" text-anchor="middle">Jul</text>
  <text x="430" y="320" font-family="Arial, sans-serif" font-size="10" fill="#6c757d" text-anchor="middle">Sep</text>
  
  <!-- Legend -->
  <circle cx="30" cy="350" r="4" fill="#28a745"/>
  <text x="40" y="355" font-family="Arial, sans-serif" font-size="12" fill="#212529">Stock Price</text>
  
  <rect x="140" y="346" width="8" height="8" fill="#007bff" opacity="0.6"/>
  <text x="155" y="355" font-family="Arial, sans-serif" font-size="12" fill="#212529">Volume</text>
  
  <!-- Performance Info -->
  <text x="300" y="350" font-family="Arial, sans-serif" font-size="11" font-weight="bold" fill="#212529">YTD: +18.5%</text>
  <text x="300" y="370" font-family="Arial, sans-serif" font-size="11" fill="#28a745">Trend: Bullish</text>
</svg>