<svg width="500" height="400" viewBox="0 0 500 400" xmlns="http://www.w3.org/2000/svg">
  <!-- Background -->
  <rect width="500" height="400" fill="#ffffff" stroke="#e9ecef" stroke-width="1" rx="8"/>
  
  <!-- Header -->
  <text x="20" y="30" font-family="Arial, sans-serif" font-size="14" font-weight="bold" fill="#212529">Financial Market Analysis</text>
  
  <!-- Chart Grid -->
  <g stroke="#f8f9fa" stroke-width="1" opacity="0.7">
    <line x1="60" y1="50" x2="60" y2="320"/>
    <line x1="60" y1="320" x2="470" y2="320"/>
    
    <!-- Grid lines -->
    <line x1="60" y1="280" x2="470" y2="280"/>
    <line x1="60" y1="240" x2="470" y2="240"/>
    <line x1="60" y1="200" x2="470" y2="200"/>
    <line x1="60" y1="160" x2="470" y2="160"/>
    <line x1="60" y1="120" x2="470" y2="120"/>
    <line x1="60" y1="80" x2="470" y2="80"/>
    
    <line x1="140" y1="50" x2="140" y2="320"/>
    <line x1="220" y1="50" x2="220" y2="320"/>
    <line x1="300" y1="50" x2="300" y2="320"/>
    <line x1="380" y1="50" x2="380" y2="320"/>
  </g>
  
  <!-- Stock Price Line Chart -->
  <polyline points="60,280 100,260 140,240 180,220 220,200 260,180 300,160 340,140 380,120 420,100 460,90" 
            fill="none" stroke="#28a745" stroke-width="3"/>
  
  <!-- Volume Bars -->
  <g fill="#007bff" opacity="0.6">
    <rect x="90" y="300" width="8" height="20"/>
    <rect x="130" y="290" width="8" height="30"/>
    <rect x="170" y="295" width="8" height="25"/>
    <rect x="210" y="285" width="8" height="35"/>
    <rect x="250" y="305" width="8" height="15"/>
    <rect x="290" y="280" width="8" height="40"/>
    <rect x="330" y="290" width="8" height="30"/>
    <rect x="370" y="275" width="8" height="45"/>
    <rect x="410" y="295" width="8" height="25"/>
    <rect x="450" y="285" width="8" height="35"/>
  </g>
  
  <!-- Y-axis Labels -->
  <g font-family="Arial, sans-serif" font-size="10" fill="#6c757d">
    <text x="45" y="85" text-anchor="end">$150</text>
    <text x="45" y="125" text-anchor="end">$140</text>
    <text x="45" y="165" text-anchor="end">$130</text>
    <text x="45" y="205" text-anchor="end">$120</text>
    <text x="45" y="245" text-anchor="end">$110</text>
    <text x="45" y="285" text-anchor="end">$100</text>
  </g>
  
  <!-- X-axis Labels -->
  <g font-family="Arial, sans-serif" font-size="10" fill="#6c757d">
    <text x="100" y="340" text-anchor="middle">Jan</text>
    <text x="180" y="340" text-anchor="middle">Mar</text>
    <text x="260" y="340" text-anchor="middle">May</text>
    <text x="340" y="340" text-anchor="middle">Jul</text>
    <text x="420" y="340" text-anchor="middle">Sep</text>
  </g>
  
  <!-- Legend -->
  <g font-family="Arial, sans-serif" font-size="12" fill="#212529">
    <circle cx="30" cy="370" r="4" fill="#28a745"/>
    <text x="40" y="375">Stock Price</text>
    
    <rect x="140" y="366" width="8" height="8" fill="#007bff" opacity="0.6"/>
    <text x="155" y="375">Volume</text>
  </g>
  
  <!-- Performance indicators -->
  <g font-family="Arial, sans-serif" font-size="11" fill="#212529">
    <text x="320" y="370" font-weight="bold">Performance: +25.4%</text>
    <text x="320" y="385" fill="#28a745">Trend: Bullish</text>
  </g>
</svg>