<svg width="500" height="400" viewBox="0 0 500 400" xmlns="http://www.w3.org/2000/svg">
  <!-- Background -->
  <rect width="500" height="400" fill="#f8f9fa"/>
  
  <!-- Main dashboard -->
  <rect x="30" y="30" width="440" height="300" fill="#ffffff" stroke="#e9ecef" stroke-width="2" rx="12"/>
  
  <!-- Header -->
  <rect x="30" y="30" width="440" height="50" fill="#007bff" rx="12 12 0 0"/>
  <text x="50" y="50" font-family="Arial" font-size="14" font-weight="bold" fill="#ffffff">Portfolio Analysis Dashboard</text>
  <text x="50" y="65" font-family="Arial" font-size="11" fill="rgba(255,255,255,0.8)">Total Value: $487,650 • YTD Return: +12.3%</text>
  
  <!-- Status badge -->
  <rect x="380" y="45" width="70" height="20" fill="#28a745" rx="10"/>
  <text x="415" y="57" font-family="Arial" font-size="10" font-weight="bold" fill="#ffffff" text-anchor="middle">OPTIMIZED</text>
  
  <!-- Asset allocation pie chart -->
  <g transform="translate(120, 180)">
    <text x="0" y="-60" font-family="Arial" font-size="12" font-weight="bold" fill="#343a40" text-anchor="middle">Asset Allocation</text>
    
    <!-- Pie slices -->
    <path d="M 0,-40 A 40,40 0 1,1 -38.04,-12.36 Z" fill="#007bff"/>
    <path d="M 0,-40 A 40,40 0 0,1 30.64,-25.71 L 0,0 Z" fill="#28a745"/>
    <path d="M 30.64,-25.71 A 40,40 0 0,1 12.36,-38.04 L 0,0 Z" fill="#ffc107"/>
    <path d="M 12.36,-38.04 A 40,40 0 0,1 0,-40 L 0,0 Z" fill="#17a2b8"/>
    
    <!-- Labels -->
    <text x="-25" y="-15" font-family="Arial" font-size="8" font-weight="bold" fill="#ffffff" text-anchor="middle">65%</text>
    <text x="20" y="-25" font-family="Arial" font-size="8" font-weight="bold" fill="#ffffff" text-anchor="middle">20%</text>
    <text x="15" y="-30" font-family="Arial" font-size="8" font-weight="bold" fill="#212529" text-anchor="middle">10%</text>
    <text x="5" y="-35" font-family="Arial" font-size="8" font-weight="bold" fill="#ffffff" text-anchor="middle">5%</text>
  </g>
  
  <!-- Legend -->
  <g transform="translate(200, 150)">
    <rect x="0" y="0" width="12" height="12" fill="#007bff"/>
    <text x="18" y="10" font-family="Arial" font-size="10" fill="#343a40">US Stocks (65%)</text>
    
    <rect x="0" y="20" width="12" height="12" fill="#28a745"/>
    <text x="18" y="30" font-family="Arial" font-size="10" fill="#343a40">International (20%)</text>
    
    <rect x="0" y="40" width="12" height="12" fill="#ffc107"/>
    <text x="18" y="50" font-family="Arial" font-size="10" fill="#343a40">Bonds (10%)</text>
    
    <rect x="0" y="60" width="12" height="12" fill="#17a2b8"/>
    <text x="18" y="70" font-family="Arial" font-size="10" fill="#343a40">Cash (5%)</text>
  </g>
  
  <!-- Performance chart -->
  <g transform="translate(300, 120)">
    <text x="0" y="0" font-family="Arial" font-size="12" font-weight="bold" fill="#343a40">Performance (YTD)</text>
    
    <!-- Chart area -->
    <rect x="0" y="10" width="150" height="80" fill="#f8f9fa" stroke="#e9ecef" rx="4"/>
    
    <!-- Performance line -->
    <path d="M 10,70 Q 30,65 50,55 T 90,45 Q 110,40 130,35 T 150,30" 
          stroke="#28a745" stroke-width="2" fill="none"/>
    
    <!-- Benchmark line -->
    <path d="M 10,75 Q 30,72 50,68 T 90,60 Q 110,55 130,50 T 150,45" 
          stroke="#6c757d" stroke-width="1" stroke-dasharray="3,3" fill="none"/>
    
    <!-- Legend -->
    <text x="10" y="105" font-family="Arial" font-size="8" fill="#28a745">Portfolio (+12.3%)</text>
    <text x="90" y="105" font-family="Arial" font-size="8" fill="#6c757d">S&P 500 (+8.1%)</text>
  </g>
  
  <!-- Risk metrics -->
  <g transform="translate(50, 220)">
    <text x="0" y="0" font-family="Arial" font-size="12" font-weight="bold" fill="#343a40">Risk Metrics</text>
    
    <text x="0" y="20" font-family="Arial" font-size="10" fill="#6c757d">Volatility:</text>
    <text x="70" y="20" font-family="Arial" font-size="10" font-weight="bold" fill="#343a40">14.2%</text>
    
    <text x="0" y="35" font-family="Arial" font-size="10" fill="#6c757d">Sharpe Ratio:</text>
    <text x="70" y="35" font-family="Arial" font-size="10" font-weight="bold" fill="#28a745">1.87</text>
    
    <text x="0" y="50" font-family="Arial" font-size="10" fill="#6c757d">Max Drawdown:</text>
    <text x="70" y="50" font-family="Arial" font-size="10" font-weight="bold" fill="#dc3545">-8.4%</text>
    
    <text x="0" y="65" font-family="Arial" font-size="10" fill="#6c757d">Beta:</text>
    <text x="70" y="65" font-family="Arial" font-size="10" font-weight="bold" fill="#343a40">0.92</text>
  </g>
  
  <!-- AI Recommendations -->
  <g transform="translate(200, 220)">
    <rect x="0" y="0" width="240" height="60" fill="#fff3cd" stroke="#ffc107" rx="6"/>
    
    <circle cx="15" cy="15" r="8" fill="#ffc107"/>
    <text x="15" y="19" font-family="Arial" font-size="10" font-weight="bold" fill="#212529" text-anchor="middle">💡</text>
    
    <text x="30" y="12" font-family="Arial" font-size="10" font-weight="bold" fill="#856404">AI Recommendation</text>
    <text x="30" y="25" font-family="Arial" font-size="9" fill="#856404">Your tech allocation is 5% overweight. Consider</text>
    <text x="30" y="37" font-family="Arial" font-size="9" fill="#856404">taking profits in AAPL and increasing international exposure.</text>
    
    <text x="30" y="52" font-family="Arial" font-size="9" fill="#28a745" font-weight="bold">Potential Benefit: +$2,400</text>
    <rect x="180" y="42" width="50" height="15" fill="#007bff" rx="7"/>
    <text x="205" y="52" font-family="Arial" font-size="8" font-weight="bold" fill="#ffffff" text-anchor="middle">Apply</text>
  </g>
  
  <!-- Rebalancing indicator -->
  <g transform="translate(50, 300)">
    <text x="0" y="0" font-family="Arial" font-size="10" font-weight="bold" fill="#343a40">Next Rebalancing:</text>
    <text x="100" y="0" font-family="Arial" font-size="10" fill="#007bff">15 days</text>
    
    <!-- Progress bar -->
    <rect x="0" y="8" width="100" height="6" fill="#e9ecef" rx="3"/>
    <rect x="0" y="8" width="75" height="6" fill="#007bff" rx="3"/>
  </g>
  
  <!-- Performance stats -->
  <g transform="translate(250, 300)">
    <text x="0" y="0" font-family="Arial" font-size="10" fill="#6c757d">Holdings: 47 • Sectors: 11 • Last updated: 5 min ago</text>
  </g>
  
  <!-- Connected accounts indicator -->
  <g transform="translate(30, 350)">
    <circle cx="8" cy="8" r="6" fill="#28a745"/>
    <text x="8" y="12" font-family="Arial" font-size="8" font-weight="bold" fill="#ffffff" text-anchor="middle">✓</text>
    <text x="20" y="12" font-family="Arial" font-size="10" fill="#343a40">Connected: Fidelity, Schwab, Vanguard</text>
  </g>
  
  <!-- Optimization score -->
  <g transform="translate(350, 350)">
    <rect x="0" y="0" width="120" height="25" fill="#28a745" rx="12"/>
    <text x="60" y="16" font-family="Arial" font-size="11" font-weight="bold" fill="#ffffff" text-anchor="middle">Optimization Score: 8.7/10</text>
  </g>
  
  <!-- Alerts -->
  <g transform="translate(400, 100)">
    <circle cx="0" cy="0" r="8" fill="#dc3545">
      <animate attributeName="opacity" values="1;0.3;1" dur="1.5s" repeatCount="indefinite"/>
    </circle>
    <text x="0" y="3" font-family="Arial" font-size="10" font-weight="bold" fill="#ffffff" text-anchor="middle">3</text>
    <text x="15" y="5" font-family="Arial" font-size="9" fill="#dc3545">Alerts</text>
  </g>
</svg>