<svg width="500" height="350" viewBox="0 0 500 350" fill="none" xmlns="http://www.w3.org/2000/svg">
  <!-- Background -->
  <rect width="500" height="350" fill="white" stroke="#e2e8f0" stroke-width="2" rx="12"/>
  
  <!-- Header -->
  <text x="50" y="40" fill="#1f2937" font-family="Arial, sans-serif" font-size="18" font-weight="bold">Connect Your Accounts</text>
  <text x="50" y="60" fill="#6b7280" font-family="Arial, sans-serif" font-size="12">Securely link your trading accounts</text>
  
  <!-- Broker cards -->
  <!-- Zerodha -->
  <rect x="50" y="80" width="120" height="80" fill="#f8fafc" stroke="#3b82f6" stroke-width="2" rx="8"/>
  <circle cx="85" cy="105" r="12" fill="#3b82f6"/>
  <text x="85" y="110" fill="white" font-family="Arial, sans-serif" font-size="10" text-anchor="middle">Z</text>
  <text x="105" y="110" fill="#1f2937" font-family="Arial, sans-serif" font-size="12" font-weight="bold">Zerodha</text>
  <text x="60" y="130" fill="#10b981" font-family="Arial, sans-serif" font-size="10">✓ Connected</text>
  <text x="60" y="145" fill="#6b7280" font-family="Arial, sans-serif" font-size="10">₹2,45,600</text>
  
  <!-- Groww -->
  <rect x="190" y="80" width="120" height="80" fill="#f8fafc" stroke="#e2e8f0" stroke-width="1" rx="8"/>
  <circle cx="225" cy="105" r="12" fill="#10b981"/>
  <text x="225" y="110" fill="white" font-family="Arial, sans-serif" font-size="10" text-anchor="middle">G</text>
  <text x="245" y="110" fill="#1f2937" font-family="Arial, sans-serif" font-size="12" font-weight="bold">Groww</text>
  <text x="200" y="130" fill="#6b7280" font-family="Arial, sans-serif" font-size="10">Connect</text>
  <rect x="200" y="135" width="50" height="20" fill="#3b82f6" rx="4"/>
  <text x="215" y="147" fill="white" font-family="Arial, sans-serif" font-size="9">Link</text>
  
  <!-- Upstox -->
  <rect x="330" y="80" width="120" height="80" fill="#f8fafc" stroke="#e2e8f0" stroke-width="1" rx="8"/>
  <circle cx="365" cy="105" r="12" fill="#f59e0b"/>
  <text x="365" y="110" fill="white" font-family="Arial, sans-serif" font-size="10" text-anchor="middle">U</text>
  <text x="385" y="110" fill="#1f2937" font-family="Arial, sans-serif" font-size="12" font-weight="bold">Upstox</text>
  <text x="340" y="130" fill="#6b7280" font-family="Arial, sans-serif" font-size="10">Connect</text>
  <rect x="340" y="135" width="50" height="20" fill="#3b82f6" rx="4"/>
  <text x="355" y="147" fill="white" font-family="Arial, sans-serif" font-size="9">Link</text>
  
  <!-- Import process -->
  <text x="50" y="200" fill="#1f2937" font-family="Arial, sans-serif" font-size="16" font-weight="bold">Import Process</text>
  
  <!-- Step 1 -->
  <circle cx="70" cy="230" r="15" fill="#3b82f6"/>
  <text x="70" y="235" fill="white" font-family="Arial, sans-serif" font-size="12" text-anchor="middle">1</text>
  <text x="95" y="235" fill="#1f2937" font-family="Arial, sans-serif" font-size="12">Secure API Connection</text>
  
  <!-- Step 2 -->
  <circle cx="70" cy="260" r="15" fill="#10b981"/>
  <text x="70" y="265" fill="white" font-family="Arial, sans-serif" font-size="12" text-anchor="middle">2</text>
  <text x="95" y="265" fill="#1f2937" font-family="Arial, sans-serif" font-size="12">Portfolio Data Sync</text>
  
  <!-- Step 3 -->
  <circle cx="70" cy="290" r="15" fill="#f59e0b"/>
  <text x="70" y="295" fill="white" font-family="Arial, sans-serif" font-size="12" text-anchor="middle">3</text>
  <text x="95" y="295" fill="#1f2937" font-family="Arial, sans-serif" font-size="12">AI Analysis & Insights</text>
  
  <!-- Security badge -->
  <rect x="280" y="210" width="150" height="60" fill="#ecfdf5" stroke="#10b981" stroke-width="1" rx="8"/>
  <circle cx="310" cy="230" r="8" fill="#10b981"/>
  <text x="310" y="235" fill="white" font-family="Arial, sans-serif" font-size="8" text-anchor="middle">🛡</text>
  <text x="325" y="235" fill="#059669" font-family="Arial, sans-serif" font-size="12" font-weight="bold">Bank-grade Security</text>
  <text x="290" y="250" fill="#059669" font-family="Arial, sans-serif" font-size="10">• 256-bit SSL encryption</text>
  <text x="290" y="263" fill="#059669" font-family="Arial, sans-serif" font-size="10">• Read-only access</text>
  
  <!-- Import button -->
  <rect x="50" y="310" width="120" height="35" fill="#3b82f6" rx="8"/>
  <text x="110" y="332" fill="white" font-family="Arial, sans-serif" font-size="14" font-weight="bold" text-anchor="middle">Import Now</text>
</svg>