<svg width="500" height="400" viewBox="0 0 500 400" xmlns="http://www.w3.org/2000/svg">
  <!-- Background -->
  <rect width="500" height="400" fill="#f8f9fa"/>
  
  <!-- Main research report -->
  <rect x="50" y="40" width="320" height="280" fill="#ffffff" stroke="#e9ecef" stroke-width="2" rx="8"/>
  
  <!-- Report header -->
  <rect x="50" y="40" width="320" height="50" fill="#007bff" rx="8 8 0 0"/>
  <text x="210" y="58" font-family="Arial" font-size="14" font-weight="bold" fill="#ffffff" text-anchor="middle">APPLE INC. (AAPL)</text>
  <text x="210" y="75" font-family="Arial" font-size="11" fill="rgba(255,255,255,0.8)" text-anchor="middle">Technology • Market Cap: $3.0T</text>
  
  <!-- Rating badge -->
  <rect x="320" y="50" width="40" height="20" fill="#28a745" rx="10"/>
  <text x="340" y="63" font-family="Arial" font-size="10" font-weight="bold" fill="#ffffff" text-anchor="middle">BUY</text>
  
  <!-- Key metrics section -->
  <text x="70" y="115" font-family="Arial" font-size="12" font-weight="bold" fill="#343a40">Key Metrics</text>
  
  <g font-family="Arial" font-size="10" fill="#6c757d">
    <text x="70" y="135">P/E Ratio:</text>
    <text x="140" y="135" font-weight="bold" fill="#343a40">28.5</text>
    
    <text x="70" y="150">Revenue Growth:</text>
    <text x="140" y="150" font-weight="bold" fill="#28a745">+8.2%</text>
    
    <text x="70" y="165">Profit Margin:</text>
    <text x="140" y="165" font-weight="bold" fill="#343a40">25.3%</text>
    
    <text x="70" y="180">ROE:</text>
    <text x="140" y="180" font-weight="bold" fill="#343a40">147%</text>
    
    <text x="200" y="135">52W High:</text>
    <text x="270" y="135" font-weight="bold" fill="#343a40">$199.62</text>
    
    <text x="200" y="150">52W Low:</text>
    <text x="270" y="150" font-weight="bold" fill="#343a40">$164.08</text>
    
    <text x="200" y="165">Beta:</text>
    <text x="270" y="165" font-weight="bold" fill="#343a40">1.29</text>
    
    <text x="200" y="180">Dividend Yield:</text>
    <text x="270" y="180" font-weight="bold" fill="#343a40">0.44%</text>
  </g>
  
  <!-- AI Analysis section -->
  <text x="70" y="210" font-family="Arial" font-size="12" font-weight="bold" fill="#343a40">AI Analysis</text>
  <rect x="70" y="220" width="280" height="60" fill="#f8f9fa" stroke="#e9ecef" rx="4"/>
  
  <text x="80" y="235" font-family="Arial" font-size="10" fill="#495057">Strong fundamentals with growing services revenue. iPhone demand</text>
  <text x="80" y="248" font-family="Arial" font-size="10" fill="#495057">remains robust despite market headwinds. AI integration presents</text>
  <text x="80" y="261" font-family="Arial" font-size="10" fill="#495057">significant upside potential for the next 12 months.</text>
  <text x="80" y="274" font-family="Arial" font-size="10" font-weight="bold" fill="#28a745">Target Price: $210 • Confidence: 92%</text>
  
  <!-- Price chart mini -->
  <text x="70" y="305" font-family="Arial" font-size="12" font-weight="bold" fill="#343a40">Price Trend (6M)</text>
  <path d="M 70,315 Q 90,310 110,305 T 150,300 Q 180,295 200,290 T 240,285 Q 270,280 290,275 T 330,270" 
        stroke="#007bff" stroke-width="2" fill="none"/>
  
  <!-- Side panel - Research tools -->
  <rect x="390" y="40" width="90" height="280" fill="#ffffff" stroke="#e9ecef" stroke-width="2" rx="8"/>
  
  <text x="435" y="60" font-family="Arial" font-size="11" font-weight="bold" fill="#343a40" text-anchor="middle">Research Tools</text>
  
  <!-- Tool icons -->
  <g transform="translate(395, 80)">
    <rect x="0" y="0" width="80" height="30" fill="#f8f9fa" stroke="#e9ecef" rx="4"/>
    <circle cx="15" cy="15" r="6" fill="#007bff"/>
    <text x="25" y="12" font-family="Arial" font-size="8" fill="#343a40">Screener</text>
    <text x="25" y="22" font-family="Arial" font-size="8" fill="#6c757d">Filter stocks</text>
  </g>
  
  <g transform="translate(395, 120)">
    <rect x="0" y="0" width="80" height="30" fill="#f8f9fa" stroke="#e9ecef" rx="4"/>
    <circle cx="15" cy="15" r="6" fill="#28a745"/>
    <text x="25" y="12" font-family="Arial" font-size="8" fill="#343a40">Compare</text>
    <text x="25" y="22" font-family="Arial" font-size="8" fill="#6c757d">Side by side</text>
  </g>
  
  <g transform="translate(395, 160)">
    <rect x="0" y="0" width="80" height="30" fill="#f8f9fa" stroke="#e9ecef" rx="4"/>
    <circle cx="15" cy="15" r="6" fill="#ffc107"/>
    <text x="25" y="12" font-family="Arial" font-size="8" fill="#343a40">Alerts</text>
    <text x="25" y="22" font-family="Arial" font-size="8" fill="#6c757d">Get notified</text>
  </g>
  
  <g transform="translate(395, 200)">
    <rect x="0" y="0" width="80" height="30" fill="#f8f9fa" stroke="#e9ecef" rx="4"/>
    <circle cx="15" cy="15" r="6" fill="#17a2b8"/>
    <text x="25" y="12" font-family="Arial" font-size="8" fill="#343a40">Export</text>
    <text x="25" y="22" font-family="Arial" font-size="8" fill="#6c757d">Download PDF</text>
  </g>
  
  <!-- Stats bar -->
  <rect x="395" y="250" width="80" height="60" fill="#f8f9fa" stroke="#e9ecef" rx="4"/>
  <text x="435" y="265" font-family="Arial" font-size="10" font-weight="bold" fill="#343a40" text-anchor="middle">Coverage</text>
  
  <text x="400" y="280" font-family="Arial" font-size="8" fill="#6c757d">10,000+ Stocks</text>
  <text x="400" y="292" font-family="Arial" font-size="8" fill="#6c757d">100+ Data Sources</text>
  <text x="400" y="304" font-family="Arial" font-size="8" fill="#6c757d">88% Accuracy</text>
  
  <!-- Bottom status -->
  <g transform="translate(50, 340)">
    <circle cx="5" cy="5" r="3" fill="#28a745">
      <animate attributeName="opacity" values="1;0.5;1" dur="2s" repeatCount="indefinite"/>
    </circle>
    <text x="15" y="9" font-family="Arial" font-size="10" fill="#343a40">Real-time updates • Last updated: 2 min ago</text>
  </g>
  
  <!-- AI badge -->
  <g transform="translate(350, 340)">
    <rect x="0" y="0" width="80" height="20" fill="#007bff" rx="10"/>
    <text x="40" y="13" font-family="Arial" font-size="10" font-weight="bold" fill="#ffffff" text-anchor="middle">🤖 AI-Powered</text>
  </g>
  
  <!-- Research depth indicators -->
  <g transform="translate(20, 100)">
    <text x="0" y="0" font-family="Arial" font-size="8" font-weight="bold" fill="#6c757d">Analysis Depth</text>
    <rect x="0" y="5" width="20" height="3" fill="#28a745" rx="1"/>
    <rect x="0" y="10" width="20" height="3" fill="#28a745" rx="1"/>
    <rect x="0" y="15" width="20" height="3" fill="#28a745" rx="1"/>
    <rect x="0" y="20" width="15" height="3" fill="#ffc107" rx="1"/>
    <rect x="0" y="25" width="10" height="3" fill="#e9ecef" rx="1"/>
  </g>
</svg>